<svg version="1.1" id="Layer_1" xmlns="http://www.w3.org/2000/svg" xmlns:xlink="http://www.w3.org/1999/xlink" x="0px" y="0px"
	 width="100%" viewBox="0 0 1024 1024" enable-background="new 0 0 1024 1024" xml:space="preserve">
<path fill="#000000" opacity="1.000000" stroke="none" 
	d="
M645.000000,1025.000000 
	C430.000000,1025.000000 215.500000,1025.000000 1.000000,1025.000000 
	C1.000000,683.666687 1.000000,342.333344 1.000000,1.000000 
	C342.333344,1.000000 683.666687,1.000000 1025.000000,1.000000 
	C1025.000000,342.333344 1025.000000,683.666687 1025.000000,1025.000000 
	C898.500000,1025.000000 772.000000,1025.000000 645.000000,1025.000000 
M604.107300,292.600800 
	C597.660217,298.107666 590.766296,303.174652 584.840332,309.194519 
	C552.195923,342.356567 537.088989,382.377258 539.484131,428.809662 
	C541.132690,460.766785 551.208008,490.131042 571.140686,515.126831 
	C611.729187,566.025330 664.484680,587.620911 728.920471,574.734863 
	C810.342834,558.451843 864.627808,479.339508 851.869934,396.941559 
	C844.572876,349.812378 819.922974,313.548828 780.030029,287.702850 
	C747.502869,266.628998 711.698730,259.118134 673.463013,264.146240 
	C648.236145,267.463684 625.425110,277.469177 604.107300,292.600800 
M371.832764,268.713043 
	C346.727844,261.352570 321.245300,260.529449 295.907135,266.360046 
	C214.343506,285.128693 156.876053,362.833954 176.263947,455.085083 
	C194.195847,540.408386 277.623810,591.370361 358.610077,575.581482 
	C449.515930,557.858704 507.460968,470.532074 480.314728,375.512665 
	C464.641663,320.652557 426.385986,286.397827 371.832764,268.713043 
M596.228027,738.699463 
	C597.834656,737.843079 599.425171,736.954590 601.050415,736.135071 
	C634.677185,719.179504 660.109985,693.487305 679.718201,661.767883 
	C681.710327,658.545166 682.858582,653.793884 682.207886,650.142273 
	C680.572632,640.964355 673.190857,636.976685 664.897583,635.188293 
	C657.272644,633.544006 651.788574,637.437195 647.853882,643.758606 
	C625.763245,679.248779 593.579773,702.021912 555.197815,716.721191 
	C522.587463,729.210144 488.807648,732.317017 454.226013,728.217896 
	C450.717194,727.802063 446.587494,727.676819 443.559845,729.121948 
	C435.968475,732.745605 431.305725,743.306763 432.928375,751.024597 
	C434.547394,758.725220 440.119019,762.571228 450.132507,764.131958 
	C470.906586,767.369873 491.659637,766.168030 512.326294,763.841248 
	C541.490662,760.557739 569.252625,752.129456 596.228027,738.699463 
z"/>
<path fill="#F9F9F9" opacity="1.000000" stroke="none" 
	d="
M604.387085,292.373718 
	C625.425110,277.469177 648.236145,267.463684 673.463013,264.146240 
	C711.698730,259.118134 747.502869,266.628998 780.030029,287.702850 
	C819.922974,313.548828 844.572876,349.812378 851.869934,396.941559 
	C864.627808,479.339508 810.342834,558.451843 728.920471,574.734863 
	C664.484680,587.620911 611.729187,566.025330 571.140686,515.126831 
	C551.208008,490.131042 541.132690,460.766785 539.484131,428.809662 
	C537.088989,382.377258 552.195923,342.356567 584.840332,309.194519 
	C590.766296,303.174652 597.660217,298.107666 604.387085,292.373718 
M583.048157,457.427765 
	C591.714417,480.444305 605.052979,500.121918 624.569092,515.350403 
	C665.729858,547.468262 725.530090,547.558594 766.587158,516.816345 
	C804.807861,488.197845 820.834961,449.640778 813.561340,402.418732 
	C808.813110,371.592651 792.900391,346.567261 768.479553,327.300201 
	C741.801758,306.252533 711.353882,296.669434 677.622070,302.526062 
	C641.234985,308.843658 612.943970,328.156464 593.966858,360.299622 
	C575.980225,390.765045 573.339539,423.021729 583.048157,457.427765 
z"/>
<path fill="#F9F9F9" opacity="1.000000" stroke="none" 
	d="
M372.229706,268.801910 
	C426.385986,286.397827 464.641663,320.652557 480.314728,375.512665 
	C507.460968,470.532074 449.515930,557.858704 358.610077,575.581482 
	C277.623810,591.370361 194.195847,540.408386 176.263947,455.085083 
	C156.876053,362.833954 214.343506,285.128693 295.907135,266.360046 
	C321.245300,260.529449 346.727844,261.352570 372.229706,268.801910 
M289.224976,532.293335 
	C309.783295,540.176636 331.128296,541.589355 352.444397,537.613708 
	C414.071960,526.119934 450.898346,469.664276 448.488617,422.201080 
	C447.010620,393.089935 438.681244,367.603546 420.167694,345.403870 
	C384.944031,303.167023 330.218719,289.682648 281.848999,311.279785 
	C230.422440,334.241882 201.596863,385.160278 212.278717,442.769073 
	C220.351578,486.307190 247.155090,515.856384 289.224976,532.293335 
z"/>
<path fill="#F9F9F9" opacity="1.000000" stroke="none" 
	d="
M595.895874,738.873413 
	C569.252625,752.129456 541.490662,760.557739 512.326294,763.841248 
	C491.659637,766.168030 470.906586,767.369873 450.132507,764.131958 
	C440.119019,762.571228 434.547394,758.725220 432.928375,751.024597 
	C431.305725,743.306763 435.968475,732.745605 443.559845,729.121948 
	C446.587494,727.676819 450.717194,727.802063 454.226013,728.217896 
	C488.807648,732.317017 522.587463,729.210144 555.197815,716.721191 
	C593.579773,702.021912 625.763245,679.248779 647.853882,643.758606 
	C651.788574,637.437195 657.272644,633.544006 664.897583,635.188293 
	C673.190857,636.976685 680.572632,640.964355 682.207886,650.142273 
	C682.858582,653.793884 681.710327,658.545166 679.718201,661.767883 
	C660.109985,693.487305 634.677185,719.179504 601.050415,736.135071 
	C599.425171,736.954590 597.834656,737.843079 595.895874,738.873413 
z"/>
<path fill="#010101" opacity="1.000000" stroke="none" 
	d="
M582.932129,457.050232 
	C573.339539,423.021729 575.980225,390.765045 593.966858,360.299622 
	C612.943970,328.156464 641.234985,308.843658 677.622070,302.526062 
	C711.353882,296.669434 741.801758,306.252533 768.479553,327.300201 
	C792.900391,346.567261 808.813110,371.592651 813.561340,402.418732 
	C820.834961,449.640778 804.807861,488.197845 766.587158,516.816345 
	C725.530090,547.558594 665.729858,547.468262 624.569092,515.350403 
	C605.052979,500.121918 591.714417,480.444305 582.932129,457.050232 
M763.195007,394.251678 
	C754.892334,387.567352 745.593750,385.418976 735.192139,387.949097 
	C718.107788,392.104706 707.449585,410.893433 711.971619,428.993591 
	C716.150085,445.718719 734.424011,456.460510 751.142456,451.722778 
	C763.491028,448.223419 771.611511,439.972565 774.529541,427.555328 
	C777.549866,414.702881 773.603149,403.616272 763.195007,394.251678 
z"/>
<path fill="#010101" opacity="1.000000" stroke="none" 
	d="
M288.865051,532.135010 
	C247.155090,515.856384 220.351578,486.307190 212.278717,442.769073 
	C201.596863,385.160278 230.422440,334.241882 281.848999,311.279785 
	C330.218719,289.682648 384.944031,303.167023 420.167694,345.403870 
	C438.681244,367.603546 447.010620,393.089935 448.488617,422.201080 
	C450.898346,469.664276 414.071960,526.119934 352.444397,537.613708 
	C331.128296,541.589355 309.783295,540.176636 288.865051,532.135010 
M342.810669,430.495453 
	C348.474945,446.358917 361.837128,454.421692 378.639923,452.114899 
	C393.222046,450.112915 404.450684,437.449677 405.448944,421.880646 
	C406.866974,399.764771 386.690979,382.581238 365.335022,387.973114 
	C348.503448,392.222687 336.469543,410.815887 342.810669,430.495453 
z"/>
<path fill="#F9F9F9" opacity="1.000000" stroke="none" 
	d="
M763.445801,394.507874 
	C773.603149,403.616272 777.549866,414.702881 774.529541,427.555328 
	C771.611511,439.972565 763.491028,448.223419 751.142456,451.722778 
	C734.424011,456.460510 716.150085,445.718719 711.971619,428.993591 
	C707.449585,410.893433 718.107788,392.104706 735.192139,387.949097 
	C745.593750,385.418976 754.892334,387.567352 763.445801,394.507874 
z"/>
<path fill="#F9F9F9" opacity="1.000000" stroke="none" 
	d="
M342.659332,430.116974 
	C336.469543,410.815887 348.503448,392.222687 365.335022,387.973114 
	C386.690979,382.581238 406.866974,399.764771 405.448944,421.880646 
	C404.450684,437.449677 393.222046,450.112915 378.639923,452.114899 
	C361.837128,454.421692 348.474945,446.358917 342.659332,430.116974 
z"/>
</svg>