<?xml version="1.0" encoding="UTF-8"?>
<!DOCTYPE svg PUBLIC "-//W3C//DTD SVG 1.1//EN" "http://www.w3.org/Graphics/SVG/1.1/DTD/svg11.dtd">
<svg xmlns="http://www.w3.org/2000/svg" version="1.1" width="500px" height="500px" style="shape-rendering:geometricPrecision; text-rendering:geometricPrecision; image-rendering:optimizeQuality; fill-rule:evenodd; clip-rule:evenodd" xmlns:xlink="http://www.w3.org/1999/xlink">
<g><path style="opacity:0.816" fill="#dc5c27" d="M 148.5,145.5 C 215.665,144.335 282.999,144.168 350.5,145C 354.12,145.672 356.786,147.506 358.5,150.5C 355.821,149.774 353.154,148.941 350.5,148C 350.833,147.667 351.167,147.333 351.5,147C 349.167,146.667 346.833,146.333 344.5,146C 279.168,145.5 213.834,145.333 148.5,145.5 Z"/></g>
<g><path style="opacity:1" fill="#fe631a" d="M 148.5,145.5 C 213.834,145.333 279.168,145.5 344.5,146C 346.833,146.333 349.167,146.667 351.5,147C 351.167,147.333 350.833,147.667 350.5,148C 353.154,148.941 355.821,149.774 358.5,150.5C 358.833,150.5 359.167,150.5 359.5,150.5C 359.525,153.179 360.858,154.512 363.5,154.5C 363.5,154.833 363.5,155.167 363.5,155.5C 363.46,158.425 364.293,161.091 366,163.5C 366.167,190.333 366.333,217.167 366.5,244C 366.491,271.313 365.825,298.48 364.5,325.5C 365.309,327.071 365.643,328.738 365.5,330.5C 364.504,330.586 363.671,330.252 363,329.5C 363.077,328.262 362.911,327.262 362.5,326.5C 360.45,327.077 359.45,328.41 359.5,330.5C 358.167,330.5 356.833,330.5 355.5,330.5C 355.383,328.516 356.05,326.85 357.5,325.5C 356.726,324.289 355.893,324.289 355,325.5C 353.994,323.466 353.494,321.3 353.5,319C 354.771,303.009 354.771,287.175 353.5,271.5C 353.5,246.167 353.5,220.833 353.5,195.5C 353.586,194.504 353.252,193.671 352.5,193C 284.126,192.83 215.793,192.33 147.5,191.5C 144.659,192.92 143.992,194.92 145.5,197.5C 145.5,198.167 145.5,198.833 145.5,199.5C 144.169,240.335 144.169,281.335 145.5,322.5C 147.801,323.269 147.967,324.269 146,325.5C 145.667,328.167 145.333,330.833 145,333.5C 144.667,333.167 144.333,332.833 144,332.5C 143.735,334.651 142.735,336.318 141,337.5C 140.5,337.333 140,337.167 139.5,337C 141.984,334.343 142.15,331.51 140,328.5C 139.53,330.774 138.53,332.774 137,334.5C 136.029,332.039 134.529,330.039 132.5,328.5C 132.167,273.496 132.5,218.496 133.5,163.5C 135.62,160.143 136.953,156.476 137.5,152.5C 140.345,148.909 144.012,146.576 148.5,145.5 Z M 169.5,165.5 C 169.328,166.492 169.662,167.158 170.5,167.5C 171.076,171.112 170.076,174.112 167.5,176.5C 163.167,177.721 159.834,176.388 157.5,172.5C 157.448,170.097 157.781,167.764 158.5,165.5C 160.484,164.844 162.484,164.178 164.5,163.5C 166.177,164.187 167.844,164.854 169.5,165.5 Z M 188.5,165.5 C 188.833,165.5 189.167,165.5 189.5,165.5C 197.575,161.964 201.075,164.63 200,173.5C 196.668,178.351 193.001,178.684 189,174.5C 187.302,171.604 187.136,168.604 188.5,165.5 Z"/></g>
<g><path style="opacity:0.992" fill="#e9845b" d="M 359.5,150.5 C 361.167,151.5 362.5,152.833 363.5,154.5C 360.858,154.512 359.525,153.179 359.5,150.5 Z"/></g>
<g><path style="opacity:1" fill="#eb8457" d="M 169.5,165.5 C 167.844,164.854 166.177,164.187 164.5,163.5C 162.484,164.178 160.484,164.844 158.5,165.5C 158.5,164.5 158.5,163.5 158.5,162.5C 161.518,162.335 164.518,162.502 167.5,163C 168.381,163.708 169.047,164.542 169.5,165.5 Z"/></g>
<g><path style="opacity:0.306" fill="#f29166" d="M 158.5,165.5 C 157.781,167.764 157.448,170.097 157.5,172.5C 156.848,171.551 156.514,170.385 156.5,169C 156.608,167.319 157.275,166.152 158.5,165.5 Z"/></g>
<g><path style="opacity:0.816" fill="#ee976a" d="M 170.5,167.5 C 171.629,169.628 171.796,171.961 171,174.5C 170.184,175.823 169.017,176.489 167.5,176.5C 170.076,174.112 171.076,171.112 170.5,167.5 Z"/></g>
<g><path style="opacity:0.969" fill="#eb8255" d="M 157.5,172.5 C 159.834,176.388 163.167,177.721 167.5,176.5C 167.038,177.88 166.038,178.547 164.5,178.5C 160.182,178.543 157.849,176.543 157.5,172.5 Z"/></g>
<g><path style="opacity:1" fill="#f66d34" d="M 188.5,165.5 C 187.136,168.604 187.302,171.604 189,174.5C 193.001,178.684 196.668,178.351 200,173.5C 201.075,164.63 197.575,161.964 189.5,165.5C 189.5,164.5 189.5,163.5 189.5,162.5C 192.711,162.988 195.544,162.321 198,160.5C 199.646,161.779 200.813,163.445 201.5,165.5C 202.167,164.833 202.833,164.167 203.5,163.5C 203.829,168.325 202.496,172.825 199.5,177C 196.167,178 192.833,179 189.5,180C 190.5,180.333 191.5,180.667 192.5,181C 189.581,181.552 186.914,180.885 184.5,179C 185.43,177.806 186.097,176.473 186.5,175C 184.775,172.114 184.108,168.948 184.5,165.5C 185.833,165.5 187.167,165.5 188.5,165.5 Z M 188.5,165.5 C 188.833,165.5 189.167,165.5 189.5,165.5C 197.575,161.964 201.075,164.63 200,173.5C 196.668,178.351 193.001,178.684 189,174.5C 187.302,171.604 187.136,168.604 188.5,165.5 Z"/></g>
<g><path style="opacity:0.937" fill="#ed804f" d="M 137.5,152.5 C 136.953,156.476 135.62,160.143 133.5,163.5C 132.5,218.496 132.167,273.496 132.5,328.5C 131.71,327.391 131.21,326.058 131,324.5C 130.333,271.5 130.333,218.5 131,165.5C 132.138,160.557 134.305,156.224 137.5,152.5 Z"/></g>
<g><path style="opacity:1" fill="#eb672a" d="M 353.5,195.5 C 352.833,195.167 352.167,194.833 351.5,194.5C 283.5,194.5 215.5,194.5 147.5,194.5C 146.094,194.973 145.427,195.973 145.5,197.5C 143.992,194.92 144.659,192.92 147.5,191.5C 215.793,192.33 284.126,192.83 352.5,193C 353.252,193.671 353.586,194.504 353.5,195.5 Z"/></g>
<g><path style="opacity:0.365" fill="#e9926f" d="M 245.5,213.5 C 244.089,215.914 242.089,217.581 239.5,218.5C 240.911,216.086 242.911,214.419 245.5,213.5 Z"/></g>
<g><path style="opacity:1" fill="#fd631a" d="M 245.5,213.5 C 248.607,213.351 251.607,213.851 254.5,215C 254.043,215.414 253.709,215.914 253.5,216.5C 256.183,217.51 258.849,218.51 261.5,219.5C 268.496,225.496 275.162,231.829 281.5,238.5C 283.056,241.736 285.056,244.736 287.5,247.5C 288.85,248.95 290.516,249.617 292.5,249.5C 292.833,249.5 293.167,249.5 293.5,249.5C 293.5,250.833 293.5,252.167 293.5,253.5C 295.5,254.167 297.5,254.833 299.5,255.5C 303.859,259.528 308.193,263.528 312.5,267.5C 313.702,271.048 314.369,274.715 314.5,278.5C 309.662,278.911 304.995,279.578 300.5,280.5C 299.883,280.611 299.383,280.944 299,281.5C 298.5,296.163 298.333,310.83 298.5,325.5C 287.833,325.5 277.167,325.5 266.5,325.5C 266.829,310.657 266.496,295.99 265.5,281.5C 265.167,281.5 264.833,281.5 264.5,281.5C 259.881,280.172 254.881,279.506 249.5,279.5C 244.5,279.667 239.5,279.833 234.5,280C 234,280.5 233.5,281 233,281.5C 232.5,296.163 232.333,310.83 232.5,325.5C 222.167,325.5 211.833,325.5 201.5,325.5C 200.849,310.735 200.182,296.069 199.5,281.5C 199.5,280.5 199.5,279.5 199.5,278.5C 194.821,278.666 190.155,278.499 185.5,278C 184.321,275.204 184.321,272.371 185.5,269.5C 188.093,268.246 190.427,266.58 192.5,264.5C 193.243,265.908 194.077,267.241 195,268.5C 195.791,266.396 197.291,265.063 199.5,264.5C 198.687,263.186 197.687,262.019 196.5,261C 197.973,260.29 198.64,259.124 198.5,257.5C 199.5,257.5 200.5,257.5 201.5,257.5C 201.5,256.5 201.5,255.5 201.5,254.5C 203.199,254.66 204.866,254.494 206.5,254C 204.405,253.444 204.238,252.944 206,252.5C 208.322,253.158 210.488,254.158 212.5,255.5C 213.167,255.167 213.833,254.833 214.5,254.5C 213.143,251.581 210.81,250.081 207.5,250C 210.447,249.888 211.78,248.388 211.5,245.5C 216.638,244.062 219.971,240.729 221.5,235.5C 228.787,231.213 234.787,225.546 239.5,218.5C 242.089,217.581 244.089,215.914 245.5,213.5 Z"/></g>
<g><path style="opacity:1" fill="#ef7743" d="M 261.5,219.5 C 258.849,218.51 256.183,217.51 253.5,216.5C 253.709,215.914 254.043,215.414 254.5,215C 251.607,213.851 248.607,213.351 245.5,213.5C 247.455,211.674 249.788,211.174 252.5,212C 255.983,213.988 258.983,216.488 261.5,219.5 Z"/></g>
<g><path style="opacity:0.894" fill="#e17046" d="M 239.5,218.5 C 234.787,225.546 228.787,231.213 221.5,235.5C 227.474,229.861 233.474,224.195 239.5,218.5 Z"/></g>
<g><path style="opacity:1" fill="#e28156" d="M 147.5,194.5 C 147.5,236.833 147.5,279.167 147.5,321.5C 146.778,321.082 146.278,320.416 146,319.5C 145.5,279.501 145.333,239.501 145.5,199.5C 145.5,198.833 145.5,198.167 145.5,197.5C 145.427,195.973 146.094,194.973 147.5,194.5 Z"/></g>
<g><path style="opacity:1" fill="#ea774b" d="M 281.5,238.5 C 285.855,241.521 289.521,245.188 292.5,249.5C 290.516,249.617 288.85,248.95 287.5,247.5C 285.056,244.736 283.056,241.736 281.5,238.5 Z"/></g>
<g><path style="opacity:1" fill="#f36d32" d="M 221.5,235.5 C 219.971,240.729 216.638,244.062 211.5,245.5C 211.78,248.388 210.447,249.888 207.5,250C 210.81,250.081 213.143,251.581 214.5,254.5C 213.833,254.833 213.167,255.167 212.5,255.5C 210.488,254.158 208.322,253.158 206,252.5C 204.238,252.944 204.405,253.444 206.5,254C 204.866,254.494 203.199,254.66 201.5,254.5C 201.5,255.5 201.5,256.5 201.5,257.5C 200.5,257.5 199.5,257.5 198.5,257.5C 205.487,249.514 213.154,242.181 221.5,235.5 Z"/></g>
<g><path style="opacity:1" fill="#ef855f" d="M 293.5,249.5 C 295.806,251.139 297.806,253.139 299.5,255.5C 297.5,254.833 295.5,254.167 293.5,253.5C 293.5,252.167 293.5,250.833 293.5,249.5 Z"/></g>
<g><path style="opacity:0.934" fill="#e9703d" d="M 363.5,155.5 C 365.778,158.397 367.278,161.73 368,165.5C 368.667,218.167 368.667,270.833 368,323.5C 367.61,326.104 366.776,328.438 365.5,330.5C 365.643,328.738 365.309,327.071 364.5,325.5C 365.825,298.48 366.491,271.313 366.5,244C 366.333,217.167 366.167,190.333 366,163.5C 364.293,161.091 363.46,158.425 363.5,155.5 Z"/></g>
<g><path style="opacity:1" fill="#f36c34" d="M 198.5,257.5 C 198.64,259.124 197.973,260.29 196.5,261C 197.687,262.019 198.687,263.186 199.5,264.5C 197.291,265.063 195.791,266.396 195,268.5C 194.077,267.241 193.243,265.908 192.5,264.5C 190.427,266.58 188.093,268.246 185.5,269.5C 189.222,264.811 193.555,260.811 198.5,257.5 Z"/></g>
<g><path style="opacity:0.482" fill="#e98256" d="M 312.5,267.5 C 315.53,270.745 316.197,274.412 314.5,278.5C 314.369,274.715 313.702,271.048 312.5,267.5 Z"/></g>
<g><path style="opacity:1" fill="#e1794d" d="M 351.5,194.5 C 352.167,194.833 352.833,195.167 353.5,195.5C 353.5,220.833 353.5,246.167 353.5,271.5C 353.829,285.344 353.496,299.01 352.5,312.5C 352.829,298.656 352.496,284.99 351.5,271.5C 351.5,245.833 351.5,220.167 351.5,194.5 Z"/></g>
<g><path style="opacity:1" fill="#f49566" d="M 185.5,269.5 C 184.321,272.371 184.321,275.204 185.5,278C 190.155,278.499 194.821,278.666 199.5,278.5C 199.5,279.5 199.5,280.5 199.5,281.5C 199.5,295.833 199.5,310.167 199.5,324.5C 198.504,310.01 198.171,295.343 198.5,280.5C 194.154,280.666 189.821,280.499 185.5,280C 183.496,277.159 182.996,273.993 184,270.5C 184.383,269.944 184.883,269.611 185.5,269.5 Z"/></g>
<g><path style="opacity:0.598" fill="#d56438" d="M 314.5,278.5 C 314.389,279.117 314.056,279.617 313.5,280C 309.179,280.499 304.846,280.666 300.5,280.5C 304.995,279.578 309.662,278.911 314.5,278.5 Z"/></g>
<g><path style="opacity:1" fill="#e0602d" d="M 264.5,281.5 C 255.214,280.387 245.881,280.22 236.5,281C 235.956,281.717 235.289,282.217 234.5,282.5C 233.504,296.99 233.171,311.657 233.5,326.5C 223.985,326.173 214.652,326.506 205.5,327.5C 204.5,327.5 203.5,327.5 202.5,327.5C 202.167,326.833 201.833,326.167 201.5,325.5C 211.833,325.5 222.167,325.5 232.5,325.5C 232.333,310.83 232.5,296.163 233,281.5C 233.5,281 234,280.5 234.5,280C 239.5,279.833 244.5,279.667 249.5,279.5C 254.881,279.506 259.881,280.172 264.5,281.5 Z"/></g>
<g><path style="opacity:0.915" fill="#ea7c4c" d="M 300.5,280.5 C 300.667,295.504 300.5,310.504 300,325.5C 299.617,326.056 299.117,326.389 298.5,326.5C 287.5,326.5 276.5,326.5 265.5,326.5C 265.5,311.5 265.5,296.5 265.5,281.5C 266.496,295.99 266.829,310.657 266.5,325.5C 277.167,325.5 287.833,325.5 298.5,325.5C 298.333,310.83 298.5,296.163 299,281.5C 299.383,280.944 299.883,280.611 300.5,280.5 Z"/></g>
<g><path style="opacity:0.133" fill="#fdc1a3" d="M 351.5,271.5 C 352.496,284.99 352.829,298.656 352.5,312.5C 352.665,315.85 352.498,319.183 352,322.5C 351.617,323.056 351.117,323.389 350.5,323.5C 351.472,306.214 351.806,288.88 351.5,271.5 Z"/></g>
<g><path style="opacity:0.623" fill="#d55021" d="M 199.5,281.5 C 200.182,296.069 200.849,310.735 201.5,325.5C 200.833,325.5 200.167,325.5 199.5,325.5C 199.5,325.167 199.5,324.833 199.5,324.5C 199.5,310.167 199.5,295.833 199.5,281.5 Z"/></g>
<g><path style="opacity:1" fill="#f76929" d="M 353.5,271.5 C 354.771,287.175 354.771,303.009 353.5,319C 353.494,321.3 353.994,323.466 355,325.5C 355.893,324.289 356.726,324.289 357.5,325.5C 356.05,326.85 355.383,328.516 355.5,330.5C 356.833,330.5 358.167,330.5 359.5,330.5C 359.45,328.41 360.45,327.077 362.5,326.5C 362.911,327.262 363.077,328.262 363,329.5C 363.671,330.252 364.504,330.586 365.5,330.5C 363.355,337.642 359.022,342.975 352.5,346.5C 352.481,344.94 352.148,343.44 351.5,342C 352.737,338.902 353.237,335.735 353,332.5C 351.33,332.656 349.663,331.99 348,330.5C 346.594,331.414 345.094,332.08 343.5,332.5C 346.274,329.74 348.608,326.74 350.5,323.5C 351.117,323.389 351.617,323.056 352,322.5C 352.498,319.183 352.665,315.85 352.5,312.5C 353.496,299.01 353.829,285.344 353.5,271.5 Z"/></g>
<g><path style="opacity:0.396" fill="#f2bb81" d="M 199.5,325.5 C 200.167,325.5 200.833,325.5 201.5,325.5C 201.833,326.167 202.167,326.833 202.5,327.5C 200.973,327.573 199.973,326.906 199.5,325.5 Z"/></g>
<g><path style="opacity:0.278" fill="#faa888" d="M 234.5,282.5 C 234.5,297.5 234.5,312.5 234.5,327.5C 224.833,327.5 215.167,327.5 205.5,327.5C 214.652,326.506 223.985,326.173 233.5,326.5C 233.171,311.657 233.504,296.99 234.5,282.5 Z"/></g>
<g><path style="opacity:0.28" fill="#fbb08e" d="M 264.5,281.5 C 264.833,281.5 265.167,281.5 265.5,281.5C 265.5,296.5 265.5,311.5 265.5,326.5C 276.5,326.5 287.5,326.5 298.5,326.5C 287.346,327.495 276.012,327.828 264.5,327.5C 264.5,312.167 264.5,296.833 264.5,281.5 Z"/></g>
<g><path style="opacity:1" fill="#fd641b" d="M 157.5,333.5 C 157.953,334.458 158.619,335.292 159.5,336C 162.482,336.498 165.482,336.665 168.5,336.5C 169.912,337.533 171.578,338.199 173.5,338.5C 206.723,337.442 239.889,337.775 273,339.5C 278.521,339.527 284.188,338.86 290,337.5C 295.196,337.716 300.196,338.716 305,340.5C 307.005,339.318 308.838,337.985 310.5,336.5C 320.172,336.666 329.839,336.5 339.5,336C 341.319,335.26 342.652,334.093 343.5,332.5C 345.094,332.08 346.594,331.414 348,330.5C 349.663,331.99 351.33,332.656 353,332.5C 353.237,335.735 352.737,338.902 351.5,342C 352.148,343.44 352.481,344.94 352.5,346.5C 346.952,347.587 341.285,348.921 335.5,350.5C 276.166,350.667 216.832,350.5 157.5,350C 159.997,347.74 159.33,346.407 155.5,346C 160.696,341.356 160.03,340.523 153.5,343.5C 153.5,344.5 153.5,345.5 153.5,346.5C 151.833,346.5 150.167,346.5 148.5,346.5C 148.5,345.5 148.5,344.5 148.5,343.5C 149.833,343.5 151.167,343.5 152.5,343.5C 152.5,342.5 152.5,341.5 152.5,340.5C 149.01,340.849 146.677,339.349 145.5,336C 146.624,335.751 147.624,335.251 148.5,334.5C 145.873,332.751 145.873,331.084 148.5,329.5C 150.323,330.491 151.823,331.824 153,333.5C 154.299,333.034 155.799,333.034 157.5,333.5 Z"/></g>
<g><path style="opacity:1" fill="#f26525" d="M 168.5,336.5 C 215.833,336.5 263.167,336.5 310.5,336.5C 308.838,337.985 307.005,339.318 305,340.5C 300.196,338.716 295.196,337.716 290,337.5C 284.188,338.86 278.521,339.527 273,339.5C 239.889,337.775 206.723,337.442 173.5,338.5C 171.578,338.199 169.912,337.533 168.5,336.5 Z"/></g>
<g><path style="opacity:0.247" fill="#ef8e63" d="M 343.5,332.5 C 342.652,334.093 341.319,335.26 339.5,336C 329.839,336.5 320.172,336.666 310.5,336.5C 263.167,336.5 215.833,336.5 168.5,336.5C 165.482,336.665 162.482,336.498 159.5,336C 158.619,335.292 157.953,334.458 157.5,333.5C 159.179,333.892 160.846,334.392 162.5,335C 220.5,335.667 278.5,335.667 336.5,335C 338.743,333.864 341.076,333.03 343.5,332.5 Z"/></g>
<g><path style="opacity:1" fill="#ec855d" d="M 139.5,340.5 C 142.669,341.483 145.002,343.483 146.5,346.5C 143.547,345.213 141.214,343.213 139.5,340.5 Z"/></g>
<g><path style="opacity:1" fill="#f86623" d="M 145.5,199.5 C 145.333,239.501 145.5,279.501 146,319.5C 146.278,320.416 146.778,321.082 147.5,321.5C 149.426,326.692 152.759,330.692 157.5,333.5C 155.799,333.034 154.299,333.034 153,333.5C 151.823,331.824 150.323,330.491 148.5,329.5C 145.873,331.084 145.873,332.751 148.5,334.5C 147.624,335.251 146.624,335.751 145.5,336C 146.677,339.349 149.01,340.849 152.5,340.5C 152.5,341.5 152.5,342.5 152.5,343.5C 151.167,343.5 149.833,343.5 148.5,343.5C 148.5,344.5 148.5,345.5 148.5,346.5C 150.167,346.5 151.833,346.5 153.5,346.5C 153.5,345.5 153.5,344.5 153.5,343.5C 160.03,340.523 160.696,341.356 155.5,346C 159.33,346.407 159.997,347.74 157.5,350C 216.832,350.5 276.166,350.667 335.5,350.5C 276.336,351.499 217.002,351.832 157.5,351.5C 153.162,351.128 149.496,349.461 146.5,346.5C 145.002,343.483 142.669,341.483 139.5,340.5C 135.638,337.45 133.305,333.45 132.5,328.5C 134.529,330.039 136.029,332.039 137,334.5C 138.53,332.774 139.53,330.774 140,328.5C 142.15,331.51 141.984,334.343 139.5,337C 140,337.167 140.5,337.333 141,337.5C 142.735,336.318 143.735,334.651 144,332.5C 144.333,332.833 144.667,333.167 145,333.5C 145.333,330.833 145.667,328.167 146,325.5C 147.967,324.269 147.801,323.269 145.5,322.5C 144.169,281.335 144.169,240.335 145.5,199.5 Z"/></g>
<g><path style="opacity:0.863" fill="#e16229" d="M 352.5,346.5 C 349.684,349.079 346.35,350.912 342.5,352C 336.584,352.19 330.751,352.69 325,353.5C 276.667,352.5 228.667,352.5 181,353.5C 173.068,352.848 165.235,352.181 157.5,351.5C 217.002,351.832 276.336,351.499 335.5,350.5C 341.285,348.921 346.952,347.587 352.5,346.5 Z"/></g>
</svg>
