<svg xmlns="http://www.w3.org/2000/svg" width="1024" height="1024" viewBox="0 0 1024 1024" version="1.1">
	<path d="M 490.500 68.036 C 434.639 72.608, 382.205 93.448, 338 128.647 C 319.545 143.342, 295.870 169.222, 282.332 189.500 C 255.432 229.793, 242.368 265.552, 237.029 313.500 C 235.611 326.242, 235.601 360.483, 237.013 373.500 C 238.257 384.971, 244.332 412.361, 246.285 415.303 C 247.608 417.295, 258.948 420.957, 274.881 424.536 C 280.659 425.835, 282.427 425.927, 283.025 424.960 C 283.444 424.281, 282.701 420.532, 281.374 416.628 C 268.020 377.367, 265.830 329.583, 275.502 288.500 C 295.135 205.108, 359.398 137.847, 443 113.190 C 469.017 105.517, 493.396 102.384, 519.500 103.358 C 566.879 105.125, 610.683 119.199, 650 145.286 C 663.540 154.269, 683.415 171.519, 682.302 173.320 C 681.966 173.864, 682.159 174.020, 682.730 173.667 C 683.302 173.314, 686.935 176.358, 690.805 180.432 C 711.989 202.733, 732.190 237.183, 742.785 269.079 C 758.624 316.759, 759.140 362.787, 744.386 411.838 C 741.935 419.986, 741.033 424.433, 741.695 425.095 C 742.539 425.939, 756.880 422.698, 775.742 417.401 C 778.122 416.732, 778.317 416.219, 781.963 401 C 790.282 366.282, 790.456 319.200, 782.399 283.083 C 774.333 246.926, 756.023 206.872, 734.592 178.500 C 727.967 169.731, 727.093 168.684, 715.701 155.870 C 698.260 136.255, 671.590 115.453, 645 100.727 C 617.826 85.677, 580.516 73.819, 546.807 69.520 C 531.770 67.602, 504.561 66.885, 490.500 68.036 M 504.859 143.728 C 496.208 151.821, 481.621 175.785, 472.434 197 C 463.598 217.405, 456.153 244.155, 452.396 269 C 451.308 276.194, 450.660 289.552, 450.338 311.425 L 449.867 343.350 442.675 352.925 C 431.976 367.168, 415.684 394.584, 415.786 398.172 C 415.889 401.796, 425.523 431.173, 428.223 436.096 C 430.162 439.631, 430.305 439.694, 436.847 439.856 C 440.506 439.947, 445.750 440.256, 448.500 440.543 C 457.442 441.478, 457.338 441.967, 454.046 414.500 C 451.498 393.235, 451.369 384.180, 453.601 383.323 C 455.794 382.481, 456.462 383.792, 460.567 397 C 469.453 425.593, 473.454 437.338, 474.919 439.135 C 476.320 440.853, 478.001 441.098, 489.699 441.287 C 498.415 441.428, 503.280 441.118, 504.024 440.375 C 504.819 439.580, 505.202 426.612, 505.325 396.331 C 505.485 357.106, 505.653 353.180, 507.273 350.707 C 510.715 345.453, 517.979 348.144, 519.389 355.194 C 519.725 356.875, 520 376.596, 520 399.018 C 520 436.921, 520.123 439.833, 521.750 440.461 C 524.485 441.517, 547.157 441.114, 548.517 439.986 C 549.186 439.430, 550.454 436.619, 551.335 433.738 C 557.565 413.360, 563.898 392.082, 564.390 389.876 C 564.711 388.433, 565.794 386.241, 566.795 385.005 C 568.505 382.894, 568.717 382.860, 570.307 384.450 C 572.585 386.728, 572.478 390.702, 569.500 414.400 C 566.498 438.289, 566.457 439.700, 568.750 440.399 C 570.802 441.025, 591.766 439.501, 594.088 438.556 C 595.808 437.857, 608.055 402.304, 608.020 398.111 C 608.009 396.796, 606.639 393.509, 604.975 390.805 C 603.312 388.101, 602.259 385.352, 602.636 384.695 C 603.012 384.038, 602.962 383.824, 602.525 384.219 C 602.087 384.614, 599.409 381.014, 596.574 376.219 C 590.185 365.411, 583.978 356.206, 578.152 348.895 L 573.686 343.290 573.508 314.395 C 573.361 290.328, 572.964 283.077, 571.132 271 C 564.050 224.306, 547.668 182.265, 524.258 150.707 C 518.380 142.784, 514.097 139, 511.007 139 C 510.406 139, 507.640 141.128, 504.859 143.728 M 198.342 194.452 C 190.259 197.969, 185.634 207.445, 187.889 215.873 C 190.452 225.456, 196.741 230.429, 206.210 230.360 C 216.803 230.283, 224.543 222.468, 224.396 212 C 224.309 205.878, 222.579 201.825, 218.339 197.814 C 213.204 192.955, 204.966 191.570, 198.342 194.452 M 818.371 204.035 C 814.956 205.082, 809.568 210.046, 807.555 214 C 802.799 223.341, 807.083 235.957, 816.684 240.880 C 820.306 242.737, 829.605 242.242, 834.091 239.953 C 838.591 237.658, 843.420 230.904, 844.437 225.486 C 845.795 218.247, 841.269 209.103, 834.635 205.679 C 830.181 203.381, 822.903 202.645, 818.371 204.035 M 503.500 223.275 C 497.958 226.382, 495.454 231.663, 495.659 239.813 C 495.935 250.817, 502 257, 512.518 257 C 520.858 257, 526.001 252.497, 528.103 243.355 C 531.615 228.085, 516.673 215.891, 503.500 223.275 M 152.275 237.654 C 146.350 239.752, 139.554 247.522, 138.008 253.967 C 136.489 260.298, 137.345 265.276, 141.075 271.808 C 148.658 285.084, 165.700 287.353, 176.526 276.526 C 186.512 266.541, 185.820 250.993, 174.976 241.711 C 168.585 236.241, 160.399 234.777, 152.275 237.654 M 872.127 241.077 C 863.765 244.424, 858 253.027, 858 262.158 C 858 280.054, 878.504 290.243, 892.710 279.408 C 906.002 269.269, 903.769 247.815, 888.768 241.548 C 884.688 239.843, 875.835 239.592, 872.127 241.077 M 507.115 285.004 C 493.680 288.175, 491.654 310.116, 504.198 316.602 C 507.682 318.404, 516.331 318.400, 519.800 316.595 C 531.809 310.346, 531.717 291.914, 519.647 286.071 C 515.154 283.896, 512.694 283.687, 507.115 285.004 M 205.500 293.902 C 188.078 298.339, 171.721 303.509, 157.267 309.147 C 151.638 311.342, 146.463 312.810, 145.767 312.409 C 145.070 312.008, 144.842 312.056, 145.261 312.517 C 145.680 312.978, 141.180 315.879, 135.261 318.964 C 107.492 333.437, 90.638 348.935, 85.487 364.735 C 82.690 373.312, 83.674 382.932, 88.306 392.305 C 95.178 406.208, 113.111 422.465, 132.218 432.110 C 135.838 433.938, 137.812 435.496, 137.384 436.188 C 136.975 436.849, 137.141 437.031, 137.788 436.631 C 138.391 436.259, 143.523 438.038, 149.192 440.586 C 170.377 450.108, 188.236 456.528, 213.048 463.544 C 270.596 479.816, 337.187 491.124, 404 495.970 C 411.975 496.548, 420.975 497.243, 424 497.515 C 437.427 498.718, 491.186 500.029, 519.500 499.843 C 564.260 499.549, 587.819 498.650, 621.500 495.950 C 628.100 495.421, 636.650 494.746, 640.500 494.450 C 705.850 489.421, 791.043 472.673, 838.226 455.577 C 878.154 441.111, 903.114 427.036, 921.580 408.577 C 932.791 397.369, 937.178 390.075, 939.179 379.312 C 942.887 359.375, 924.369 336.965, 889.295 318.945 C 871.182 309.639, 839.961 298.830, 813.237 292.613 C 804.438 290.566, 802.857 290.432, 802.162 291.676 C 801.481 292.892, 802.543 299.568, 805.491 312.610 C 805.849 314.194, 807.907 315.421, 813.734 317.527 C 838.430 326.453, 858.014 337.340, 869.482 348.517 C 880.377 359.136, 883.226 368.439, 879.067 379.818 C 872.470 397.866, 847.495 414.197, 805.358 428.015 C 794.916 431.439, 788.847 432.945, 787.107 432.542 C 785.447 432.158, 784.978 432.259, 785.816 432.819 C 787.386 433.870, 781.734 435.544, 761.500 440.022 C 711.708 451.043, 662.691 457.273, 592.500 461.504 C 550.340 464.045, 460.633 463.534, 417 460.503 C 402.723 459.512, 370.491 456.882, 368.430 456.541 C 367.292 456.352, 363.242 455.893, 359.430 455.520 C 332.079 452.843, 279.068 443.811, 253.500 437.472 C 231.165 431.934, 212.776 426.171, 213.532 424.947 C 213.847 424.439, 213.459 424.270, 212.671 424.573 C 209.148 425.925, 177.861 412.011, 164.820 403.294 C 156.316 397.609, 147.533 388.418, 144.736 382.279 C 141.550 375.284, 141.849 366.206, 145.503 358.986 C 149.316 351.453, 158.993 342.287, 170.152 335.641 C 178.946 330.403, 203.071 319.557, 211.638 316.990 C 218.187 315.028, 218.839 314.066, 221.081 303.073 C 223.042 293.461, 223.096 289.946, 221.281 290.041 C 220.852 290.064, 213.750 291.801, 205.500 293.902 M 848.086 478.038 C 843.559 478.975, 838.128 482.075, 833.819 486.180 C 822.219 497.234, 822.801 517.360, 835.041 528.418 C 840.831 533.649, 846.365 535.952, 853.212 535.978 C 865.015 536.023, 875.674 529.135, 880.745 518.185 C 882.848 513.644, 883.149 511.752, 882.817 505.185 C 882.574 500.370, 881.719 496.042, 880.527 493.597 C 874.976 482.198, 860.812 475.405, 848.086 478.038 M 155.999 479.907 C 142.932 482.511, 132 495.599, 132 508.641 C 132 520.194, 141.394 533.273, 151.932 536.392 C 159.199 538.543, 163.808 538.418, 170.577 535.885 C 185.896 530.154, 193.538 511.591, 186.714 496.687 C 181.185 484.610, 168.145 477.486, 155.999 479.907 M 282.250 493.665 C 276.895 495.816, 290.148 514.608, 323.392 552 C 331.064 560.629, 337.209 568.524, 338.569 571.500 C 339.826 574.250, 344.914 592.475, 349.875 612 C 361.507 657.772, 364.190 666.939, 368.537 675.754 C 375.260 689.391, 388.458 700.880, 402.458 705.285 L 409.500 707.500 512.500 707.500 L 615.500 707.500 622 705.158 C 630.495 702.096, 640.805 695.176, 646.535 688.690 C 654.134 680.088, 657.968 670.433, 666.862 637.500 C 671.318 621, 676.736 600.603, 678.902 592.174 C 681.068 583.745, 683.984 574.520, 685.384 571.674 C 688.582 565.171, 693.822 558.772, 695.235 559.645 C 695.826 560.010, 696.032 559.861, 695.693 559.313 C 695.145 558.426, 699.702 552.910, 719.911 530 C 729.197 519.473, 742.624 500.202, 743.073 496.756 C 743.499 493.487, 742.960 492.849, 740.250 493.418 C 738.737 493.735, 730.865 494.679, 722.755 495.516 C 714.645 496.354, 706.995 497.516, 705.755 498.099 C 704.515 498.682, 701.311 502.102, 698.636 505.700 C 695.961 509.297, 689.211 517.646, 683.636 524.253 C 678.061 530.859, 670.424 539.918, 666.663 544.382 C 655.445 557.703, 655.256 558.225, 641.558 613.500 C 630.855 656.689, 628.848 663.055, 624.371 668.011 C 617.196 675.954, 624.012 675.506, 511 675.449 L 410.500 675.399 405.349 672.732 C 399.793 669.857, 396.668 666.524, 394.349 661 C 393.541 659.075, 387.764 637.013, 381.510 611.974 C 375.256 586.935, 369.200 563.937, 368.052 560.868 C 366.540 556.828, 362.630 551.315, 353.884 540.894 C 339.248 523.454, 332.251 514.917, 325 505.656 C 318.730 497.648, 318.829 497.690, 301.500 495.509 C 294.900 494.678, 288.150 493.810, 286.500 493.580 C 284.850 493.350, 282.938 493.388, 282.250 493.665 M 785.143 495.482 C 772.069 499.593, 767.505 516.501, 776.814 526.339 C 780.773 530.524, 784.267 532, 790.200 531.996 C 796.447 531.992, 800.463 529.882, 804.634 524.413 C 807.178 521.077, 807.500 519.844, 807.500 513.421 C 807.500 506.818, 807.228 505.850, 804.394 502.343 C 798.805 495.428, 792.482 493.175, 785.143 495.482 M 530.968 504 C 530.901 504.275, 530.684 505.175, 530.485 506 C 527.419 518.695, 521.509 533.234, 514.296 545.823 L 511.246 551.146 505.662 540.231 C 500.736 530.599, 494 511.198, 494 506.638 C 494 503.573, 491.893 504.987, 489.965 509.346 C 481.933 527.503, 483.823 552.889, 494.977 576.693 C 499.265 585.842, 508.435 599.566, 510.899 600.520 C 512.824 601.266, 515.243 598.379, 523.212 585.822 C 532.844 570.644, 537.835 555.542, 538.687 539 C 539.127 530.443, 538.839 526.877, 537.128 519.731 C 535.375 512.408, 531.393 502.240, 530.968 504 M 586.388 523.942 C 580.006 526.635, 578.008 535.479, 582.560 540.889 C 589.828 549.527, 603.464 541.872, 600.089 531.048 C 598.313 525.352, 591.464 521.800, 586.388 523.942 M 419.270 527.483 C 414.508 529.553, 411.784 534.463, 412.347 539.966 C 412.711 543.534, 413.548 545.114, 416.512 547.830 C 419.992 551.020, 420.563 551.201, 425.778 550.768 C 430.458 550.380, 431.783 549.807, 434.168 547.138 C 439.381 541.304, 437.498 530.888, 430.643 527.635 C 426.480 525.659, 423.553 525.620, 419.270 527.483 M 449.816 581.873 C 443.728 587.312, 446.707 596.267, 455.054 597.621 C 461.620 598.687, 467.105 591.877, 464.947 585.339 C 462.819 578.892, 455.125 577.130, 449.816 581.873 M 564.747 582.278 C 559.924 583.463, 556.747 587.766, 556.820 593.016 C 556.888 597.981, 558.336 600.624, 562.314 603.050 C 573.625 609.947, 585.463 595.499, 576.705 585.486 C 573.897 582.276, 569.526 581.103, 564.747 582.278 M 431 611.915 C 425.670 613.023, 421.557 615.531, 417.719 620.016 C 411.331 627.478, 410.518 637.034, 415.478 646.363 C 416.781 648.814, 417.544 651.122, 417.174 651.493 C 416.803 651.863, 416.950 652.019, 417.500 651.840 C 418.050 651.660, 420.300 652.635, 422.500 654.006 C 425.955 656.160, 427.669 656.500, 435.087 656.500 C 442.973 656.500, 444.022 656.259, 447.943 653.540 C 453.459 649.717, 456.645 644.944, 458.139 638.268 C 461.567 622.950, 446.817 608.628, 431 611.915 M 506.333 626.097 C 502.801 627.120, 498.321 631.871, 497.390 635.584 C 495.755 642.096, 500.984 650.344, 507.526 651.571 C 512.080 652.425, 517.417 650.481, 520.467 646.857 C 524.091 642.550, 524.076 634.432, 520.436 630.106 C 518.354 627.632, 512.271 624.711, 510 625.096 C 509.725 625.142, 508.075 625.593, 506.333 626.097 M 574.388 634.532 C 570.707 636.406, 568.912 639.385, 568.786 643.828 C 568.658 648.333, 570.685 651.623, 574.789 653.570 C 585.069 658.448, 594.857 645.419, 587.250 636.981 C 583.876 633.239, 578.820 632.276, 574.388 634.532 M 389.423 724.967 C 385.892 726.396, 381.105 731.917, 379.895 735.956 C 377.714 743.236, 381.219 751.554, 387.984 755.148 C 391.320 756.921, 396.612 757, 512.087 757 L 632.704 757 636.102 754.742 C 646.556 747.795, 645.788 732.720, 634.634 725.919 C 631.593 724.064, 627.936 724.009, 511.500 724.067 C 445.500 724.100, 390.565 724.505, 389.423 724.967 M 392.264 775.963 C 387.778 777.042, 382.595 781.226, 380.641 785.345 C 377.113 792.779, 379.992 802.966, 386.821 807.212 L 390.500 809.500 509.500 809.779 C 614.918 810.027, 628.966 809.882, 632.580 808.512 C 645.786 803.503, 647.637 786.083, 635.795 778.246 L 631.647 775.500 513.573 775.342 C 448.633 775.256, 394.044 775.535, 392.264 775.963 M 412.428 824.789 C 407.244 825.566, 405.928 826.239, 404.611 828.786 C 400.682 836.384, 410.219 854.282, 424 865.174 C 429.245 869.319, 436.698 873.236, 442.827 875.069 C 446.690 876.224, 447.483 877.015, 450.210 882.431 C 452.189 886.360, 456.128 891.345, 461.383 896.569 C 474.972 910.077, 492.245 917.151, 512 917.299 C 523.805 917.387, 531.477 915.483, 543.904 909.379 C 551.364 905.715, 554.896 903.184, 560.998 897.130 C 565.228 892.934, 570.240 886.800, 572.137 883.500 C 575.477 877.687, 575.925 877.332, 586.542 872.115 C 595.814 867.558, 598.654 865.558, 605 859.115 C 613.268 850.721, 618.910 841.017, 619.710 833.818 C 620.114 830.185, 619.805 829.141, 617.765 827.236 L 615.341 824.971 514.849 824.736 C 459.578 824.606, 413.489 824.630, 412.428 824.789" stroke="none" fill="#000000" fill-rule="evenodd"/>
</svg>