<?xml version="1.0" encoding="utf-8"?>
<!DOCTYPE svg PUBLIC "-//W3C//DTD SVG 1.0//EN" "http://www.w3.org/TR/2001/REC-SVG-20010904/DTD/svg10.dtd">
<svg version="1.0" xmlns="http://www.w3.org/2000/svg" width="64px" height="64px" viewBox="0 0 64 64" preserveAspectRatio="xMidYMid meet">
 <g fill="#000000">
  <path d="M0 32 l0 -32 32 0 32 0 0 32 0 32 -32 0 -32 0 0 -32z m13 18.4 c0 -1.2 2.8 -1.4 16.9 -1.4 16.3 0 16.9 0.1 17.4 2.1 0.8 2.9 2.7 1.4 2.7 -2.1 0 -2.9 -0.1 -2.9 -6.2 -3.2 l-6.3 -0.3 0 -4.8 0 -4.7 -7.5 0 -7.5 0 0 4.7 0 4.8 -6.2 0.3 c-6.1 0.3 -6.3 0.4 -6.3 3.1 0 1.5 0.3 3.1 0.6 3.4 1 0.9 2.4 -0.2 2.4 -1.9z"/>
 </g>
 <g fill="#ffffff">
  <path d="M7.7 55.3 c-1.2 -1.2 -0.8 -18.8 0.5 -20.1 0.9 -0.9 0.7 -1.2 -1 -1.2 -1.5 0 -2.2 -0.6 -2.2 -2 0 -2.6 4.7 -2.8 5.2 -0.2 0.2 1 1.2 -0.6 2.3 -3.8 2.6 -7.2 4.3 -8 18 -8 12.6 0 14.6 0.8 16.5 6.8 1.3 3.9 3 6.5 3 4.4 0 -0.7 1.1 -1.2 2.5 -1.2 1.8 0 2.5 0.5 2.5 2 0 1.4 -0.7 2 -2.1 2 -1.7 0 -1.9 0.3 -1 1.4 0.8 0.9 1.1 4.7 0.9 10.7 l-0.3 9.4 -3.8 0.3 c-3.2 0.3 -3.9 0 -4.4 -1.7 -0.5 -2 -1.2 -2.1 -14.3 -2.1 -12.9 0 -13.8 0.1 -14.3 2 -0.4 1.5 -1.4 2 -3.9 2 -1.9 0 -3.8 -0.3 -4.1 -0.7z m11.8 -14.3 c0 -1.8 -7.2 -2.7 -8.7 -1.2 -1.9 1.9 0.3 3.3 4.5 3 2.9 -0.2 4.2 -0.8 4.2 -1.8z m29.8 0.6 c0.8 -2 -0.2 -2.6 -4.4 -2.6 -3.8 0 -5.5 1.2 -4.4 3 1 1.6 8.2 1.2 8.8 -0.4z m-4.3 -10.1 c0 -0.9 -0.7 -2.9 -1.5 -4.5 l-1.6 -3 -12 0 -12 0 -1.5 3.5 c-0.7 1.9 -1.4 3.9 -1.4 4.5 0 0.6 5.4 1 15 1 12.9 0 15 -0.2 15 -1.5z"/>
  <path d="M48 22.8 c-0.9 -1.9 -2.8 -3.9 -4.7 -4.8 -3.9 -1.8 -4.2 -3 -0.9 -3 2.6 0 4.5 -1.8 6.2 -5.9 l1.1 -2.6 1.6 3.8 c1.2 2.8 2.3 3.9 4.7 4.3 3.8 0.8 3.8 1.5 -0.3 3.4 -1.8 0.9 -3.9 2.9 -4.7 4.8 l-1.6 3.3 -1.4 -3.3z"/>
 </g>
</svg>