<svg width="32" height="32" viewBox="0 0 32 32" fill="none" xmlns="http://www.w3.org/2000/svg">
  <rect width="32" height="32" rx="6" fill="#7c3aed"/>
  <path d="M16 8c-3.3 0-6 2.7-6 6 0 1.5.6 2.9 1.6 3.9l.4.4c.3.3.3.8 0 1.1-.3.3-.8.3-1.1 0l-.4-.4C9.4 18.3 8.5 16.7 8.5 14.5c0-4.1 3.4-7.5 7.5-7.5s7.5 3.4 7.5 7.5c0 2.2-.9 3.8-2.4 5.1l-.4.4c-.3.3-.8.3-1.1 0-.3-.3-.3-.8 0-1.1l.4-.4c1-.9 1.6-2.3 1.6-3.9 0-3.3-2.7-6-6-6z" fill="white"/>
  <circle cx="12" cy="18" r="1.5" fill="white"/>
  <circle cx="20" cy="18" r="1.5" fill="white"/>
  <path d="M16 22c-1.1 0-2-.9-2-2h4c0 1.1-.9 2-2 2z" fill="white"/>
</svg>
