<svg xmlns="http://www.w3.org/2000/svg" width="1024" height="1024" viewBox="0 0 1024 1024" version="1.1">
	<path d="M 491.742 67.990 C 420.280 73.589, 355.486 105.098, 307.678 157.500 C 276.354 191.834, 253.629 233.559, 243.456 275.415 C 237.967 298.002, 236.500 312.253, 236.500 343 C 236.500 361.672, 236.956 374.431, 237.822 380 C 239.941 393.631, 245.016 413.816, 246.830 415.832 C 248.343 417.515, 261.428 421.524, 276.863 425.034 C 283.944 426.644, 284.458 425.677, 281.342 416.613 C 272.975 392.273, 268.112 358.257, 269.407 333.133 C 272.572 271.722, 296.441 217.503, 339.021 175 C 376.715 137.375, 422.296 114.445, 477.500 105.339 C 492.761 102.822, 529.641 102.823, 546 105.342 C 628.077 117.980, 693.364 164.791, 729.501 236.914 C 740.775 259.414, 747.017 278.290, 752.182 305.500 C 754.176 316.006, 754.458 320.612, 754.442 342.500 C 754.426 364.200, 754.125 369.084, 752.164 379.500 C 749.446 393.936, 746.800 404.683, 743.243 415.745 C 741.465 421.271, 740.922 424.322, 741.596 424.996 C 742.441 425.841, 759.633 422.023, 775.734 417.415 C 778.222 416.702, 778.647 415.509, 782.462 398.500 C 791.027 360.321, 790.282 313.689, 780.497 275.500 C 752.048 164.463, 660.652 84.054, 546.466 69.603 C 531.105 67.659, 505.572 66.906, 491.742 67.990 M 509.432 139.964 C 504.131 142.110, 491.448 159.501, 481.695 178 C 466.930 206.002, 458.241 232.920, 452.803 267.500 C 451.157 277.968, 450.682 286.618, 450.368 311.913 L 449.977 343.326 442.950 352.634 C 431.687 367.554, 416 394.036, 416 398.131 C 416 401.931, 425.809 432.174, 428.542 436.801 C 430.207 439.620, 430.559 439.732, 438.384 439.914 C 442.848 440.017, 447.512 440.353, 448.750 440.659 C 452.053 441.478, 455.692 440.285, 456.236 438.206 C 456.497 437.208, 456.290 433.265, 455.775 429.445 C 453.503 412.570, 451.443 390.649, 451.822 387.395 C 452.264 383.609, 454.618 381.798, 456.097 384.104 C 456.590 384.872, 458.595 390.675, 460.553 397 C 468.019 421.114, 474.164 438.892, 475.385 439.905 C 476.969 441.219, 502.872 441.528, 504.152 440.248 C 504.681 439.719, 505.166 420.968, 505.288 396.368 C 505.482 357.145, 505.654 353.176, 507.273 350.706 C 510.715 345.453, 517.979 348.144, 519.389 355.194 C 519.725 356.875, 520 376.596, 520 399.018 C 520 435.271, 520.175 439.853, 521.582 440.393 C 524.679 441.582, 546.548 441.054, 548.234 439.750 C 549.159 439.035, 552.930 428.223, 557.042 414.500 C 564.592 389.299, 566.799 383, 568.080 383 C 568.508 383, 569.564 383.707, 570.429 384.571 C 572.576 386.718, 572.436 391.236, 569.500 414.600 C 566.502 438.460, 566.466 439.702, 568.750 440.399 C 572.136 441.433, 593.140 439.288, 594.676 437.753 C 596.405 436.024, 608 401.683, 608 398.292 C 608 393.922, 586.672 358.982, 577.379 348.128 L 573.635 343.756 573.456 315.628 C 573.279 287.642, 572.241 275.049, 568.524 255.740 C 561.103 217.195, 544.063 176.740, 524.205 150.522 C 518.884 143.497, 517.148 141.685, 514.253 140.135 C 511.844 138.846, 512.165 138.857, 509.432 139.964 M 198.500 194.421 C 191.935 197.360, 186.981 204.990, 187.010 212.116 C 187.015 213.427, 188.106 216.834, 189.434 219.686 C 196.810 235.527, 219.195 233.628, 224.082 216.746 C 226.306 209.063, 220.744 197.462, 213.357 194.376 C 209.220 192.647, 202.416 192.668, 198.500 194.421 M 818.594 204.041 C 815.204 205.055, 809.461 210.294, 807.377 214.274 C 805.693 217.488, 805.378 226.339, 806.815 230.056 C 808.219 233.689, 812.749 238.819, 816.069 240.536 C 820.377 242.764, 828.794 242.395, 834.026 239.750 C 843.286 235.069, 847.080 222.939, 842.242 213.488 C 838.012 205.227, 828 201.228, 818.594 204.041 M 504.209 222.668 C 495.088 227.163, 492.362 240.698, 498.638 250.329 C 501.556 254.807, 506.118 257, 512.518 257 C 520.927 257, 526.049 252.607, 528.046 243.684 C 531.441 228.514, 517.423 216.155, 504.209 222.668 M 153.534 237.254 C 150.943 237.938, 147.790 240.080, 144.436 243.433 C 136.196 251.673, 135.024 260.701, 140.808 271.370 C 144.142 277.519, 148.661 280.985, 155.292 282.478 C 179.910 288.023, 194.083 255.996, 173.789 240.679 C 168.062 236.356, 161.279 235.209, 153.534 237.254 M 870.278 242.549 C 860.074 247.634, 855.854 257.733, 859.081 269.351 C 861.191 276.951, 871.016 284, 879.500 284 C 891.790 284, 902.417 272.201, 901.428 259.653 C 900.192 243.959, 884.613 235.405, 870.278 242.549 M 506.475 285.060 C 496.633 287.924, 492.269 303.175, 498.788 311.923 C 504.764 319.940, 517.771 320.405, 524.627 312.845 C 527.677 309.482, 529.338 303.516, 528.567 298.694 C 526.818 287.754, 517.334 281.901, 506.475 285.060 M 205.500 293.910 C 139.377 310.578, 94.511 337.055, 85.487 364.735 C 84.305 368.358, 83.894 372.228, 84.150 377.308 C 84.715 388.487, 89.693 397.799, 101.420 409.617 C 114.886 423.187, 134.233 434.823, 162.500 446.354 C 217.193 468.665, 305.368 487.680, 385.500 494.442 C 473.044 501.831, 546.938 501.838, 640.500 494.467 C 668.750 492.241, 706.009 487.028, 746.635 479.618 C 771.736 475.039, 818.097 462.871, 838.226 455.577 C 878.061 441.144, 902.865 427.143, 921.580 408.527 C 932.804 397.361, 937.172 390.105, 939.186 379.277 C 940.171 373.979, 940.084 372.124, 938.603 366.795 C 933.084 346.947, 910.399 327.418, 875.628 312.582 C 862.233 306.867, 837.470 298.721, 820.501 294.447 C 804.015 290.294, 801.989 290.163, 802.030 293.250 C 802.066 295.936, 805.502 313.843, 806.090 314.406 C 806.315 314.622, 811 316.470, 816.500 318.511 C 840.439 327.396, 861.760 339.653, 871.411 350.078 C 880.387 359.773, 882.961 369.817, 879.085 380.019 C 871.377 400.305, 840.249 418.487, 787.574 433.471 C 739.757 447.073, 662.783 458.158, 593 461.492 C 586.675 461.794, 578.636 462.299, 575.135 462.613 C 556.434 464.291, 447.840 462.857, 415.500 460.506 C 364.328 456.785, 331.163 452.773, 290.500 445.382 C 211.810 431.079, 155.949 406.896, 144.736 382.279 C 141.742 375.703, 141.886 366.309, 145.087 359.522 C 148.545 352.189, 158.923 342.266, 170 335.701 C 178.441 330.698, 198.870 321.448, 212.292 316.551 C 214.927 315.590, 217.685 313.835, 218.421 312.651 C 220.112 309.933, 223.443 292.526, 222.549 291.080 C 221.704 289.712, 223.017 289.494, 205.500 293.910 M 848.086 478.057 C 840.974 479.499, 832.574 485.920, 829.114 492.556 C 824.739 500.951, 824.483 512.232, 828.493 519.986 C 837.498 537.400, 860.150 541.271, 873.936 527.753 C 880.039 521.769, 882.978 515.070, 882.990 507.116 C 883.004 498.270, 881.355 493.611, 876.169 487.843 C 868.668 479.500, 858.478 475.949, 848.086 478.057 M 155.999 479.907 C 145.713 481.956, 136.486 490.528, 133.380 500.917 C 128.054 518.733, 142.479 538, 161.144 538 C 166.950 538, 175.376 534.371, 180.007 529.877 C 186.106 523.958, 188.983 517.095, 188.968 508.500 C 188.953 499.978, 186.660 494.333, 180.697 488.144 C 174.215 481.417, 164.567 478.199, 155.999 479.907 M 282.750 493.701 C 280.235 494.341, 280.574 496.581, 284.143 502.919 C 289.382 512.224, 305.128 531.740, 326.867 555.871 C 332.263 561.861, 337.212 568.438, 338.540 571.385 C 339.809 574.198, 344.712 591.673, 349.437 610.217 C 365.683 673.986, 367.422 678.601, 379.909 691.095 C 385.312 696.502, 389.449 699.617, 394.264 701.903 C 407.421 708.152, 406.302 708.098, 516.084 707.748 C 604.697 707.465, 616 707.254, 620.099 705.808 C 637.508 699.669, 650.163 688.052, 656.390 672.498 C 659.172 665.549, 665.591 642.767, 675.971 603 C 684.991 568.440, 683.638 571.218, 701.061 551.500 C 726.920 522.236, 733.978 513.326, 740.286 501.985 C 742.278 498.402, 743.592 494.972, 743.204 494.364 C 742.721 493.604, 740.461 493.504, 736 494.045 C 732.425 494.478, 724.550 495.372, 718.500 496.032 C 712.450 496.691, 706.763 497.617, 705.863 498.090 C 704.963 498.563, 699.236 505.148, 693.138 512.725 C 687.039 520.301, 677.033 532.350, 670.902 539.500 C 664.200 547.317, 658.603 554.924, 656.864 558.578 C 655.046 562.399, 649.714 581.647, 642.507 610.406 C 636.201 635.569, 629.873 658.762, 628.443 661.948 C 625.851 667.724, 623.625 669.989, 617 673.595 C 613.623 675.433, 609.920 675.500, 512 675.500 L 410.500 675.500 405.744 673.137 C 400.571 670.567, 396.448 666.292, 394.379 661.355 C 393.654 659.625, 387.879 637.498, 381.546 612.185 C 375.213 586.871, 369.125 563.762, 368.017 560.830 C 365.847 555.089, 365.885 555.140, 343.500 528.314 C 335.250 518.427, 326.409 507.622, 323.854 504.302 C 319.352 498.452, 319.013 498.232, 312.854 497.159 C 309.359 496.551, 302.225 495.561, 297 494.960 C 291.775 494.358, 286.825 493.729, 286 493.561 C 285.175 493.393, 283.712 493.456, 282.750 493.701 M 785.675 495.504 C 772.310 498.897, 767.310 516.295, 776.814 526.339 C 780.773 530.524, 784.267 532, 790.200 531.996 C 796.447 531.992, 800.463 529.882, 804.634 524.413 C 807.172 521.086, 807.500 519.836, 807.500 513.500 C 807.500 507.194, 807.166 505.906, 804.683 502.652 C 799.404 495.730, 793.511 493.514, 785.675 495.504 M 489.962 509.352 C 479.964 531.955, 485.781 566.218, 504.059 592.398 C 509.161 599.705, 511.254 601.579, 513.065 600.460 C 514.999 599.265, 527.053 580.082, 530.007 573.500 C 538.412 554.768, 540.946 535.636, 537.130 519.725 C 535.003 510.856, 532.621 505, 531.141 505 C 530.697 505, 530.296 505.563, 530.250 506.250 C 529.931 511.041, 524.827 524.686, 518.826 536.788 C 510.695 553.186, 511.948 553.072, 504.491 538.089 C 501.999 533.083, 498.544 523.927, 496.813 517.743 C 495.082 511.559, 493.301 506.083, 492.855 505.572 C 492.402 505.054, 491.127 506.720, 489.962 509.352 M 586.388 523.942 C 580.030 526.625, 578.008 535.479, 582.527 540.850 C 585.725 544.650, 589.706 545.567, 594.432 543.593 C 598.703 541.808, 601.308 536.792, 600.379 532.145 C 599.194 526.219, 591.577 521.753, 586.388 523.942 M 419.270 527.483 C 415.493 529.125, 412.009 534.311, 412.004 538.300 C 411.995 544.915, 417.831 551, 424.185 551 C 432.026 551, 437 546.431, 437 539.228 C 437 533.523, 434.871 529.641, 430.643 527.635 C 426.480 525.659, 423.553 525.620, 419.270 527.483 M 449.816 581.873 C 443.329 587.669, 447.178 597.455, 455.944 597.455 C 465.436 597.455, 469.180 584.730, 460.941 580.470 C 456.679 578.266, 453.389 578.681, 449.816 581.873 M 562.500 583.161 C 558.705 585.248, 557.045 588.328, 557.022 593.327 C 557.004 597.317, 557.494 598.648, 559.850 601.003 C 563.676 604.830, 569.267 605.849, 573.607 603.512 C 583.799 598.023, 580.223 581.950, 568.827 582.030 C 566.447 582.047, 563.600 582.556, 562.500 583.161 M 432.500 612.013 C 426.070 612.754, 422.070 614.932, 417.643 620.104 C 405.330 634.489, 415.504 657, 434.318 657 C 447.034 657, 455.457 650.292, 458.076 638.081 C 459.538 631.263, 458.023 625.556, 453.281 620.016 C 447.755 613.560, 441.151 611.016, 432.500 612.013 M 506.122 626.363 C 496.511 629.871, 494.076 641.347, 501.549 647.909 C 505.924 651.750, 509.135 652.576, 514.017 651.113 C 519.649 649.426, 523.004 644.960, 522.985 639.173 C 522.968 633.726, 521.492 630.395, 518 627.923 C 514.550 625.481, 510.130 624.901, 506.122 626.363 M 574.595 634.527 C 570.521 636.652, 569.069 638.917, 569.032 643.203 C 568.987 648.476, 570.749 651.653, 574.782 653.567 C 581.786 656.891, 589.986 651.450, 589.996 643.473 C 590.001 639.509, 587.543 636.125, 583.401 634.394 C 579.202 632.640, 578.185 632.655, 574.595 634.527 M 389.423 724.967 C 385.892 726.396, 381.105 731.917, 379.895 735.956 C 377.714 743.236, 381.219 751.554, 387.984 755.148 C 391.320 756.921, 396.612 757, 512.087 757 L 632.704 757 636.102 754.749 C 640.922 751.555, 644.382 744.222, 643.509 739.051 C 642.666 734.066, 639.484 729.243, 635.078 726.274 L 631.704 724 511.602 724.063 C 445.546 724.098, 390.565 724.505, 389.423 724.967 M 392.913 775.915 C 385.163 777.464, 379 784.944, 379 792.803 C 379 798.453, 382.781 804.926, 387.540 807.423 C 391.475 809.487, 392.231 809.502, 509.333 809.766 C 589.877 809.948, 628.410 809.697, 631.096 808.974 C 645.394 805.124, 648.217 786.368, 635.722 778.245 L 631.500 775.500 514 775.349 C 449.375 775.266, 394.886 775.521, 392.913 775.915 M 406.039 827.189 C 404.918 828.392, 403.952 830.080, 403.894 830.939 C 403.333 839.201, 407.938 848.829, 417.005 858.352 C 424.597 866.326, 431.778 871.088, 440.915 874.208 C 446.754 876.201, 447.193 876.587, 450.238 882.400 C 454.444 890.431, 466.593 902.611, 475.129 907.353 C 504.470 923.657, 538.267 919.594, 561.107 897.019 C 565.408 892.768, 570.388 886.570, 572.565 882.759 C 575.692 877.284, 577.081 875.806, 579.958 874.888 C 598.456 868.985, 617.679 849.265, 619.713 834.106 C 620.177 830.644, 619.874 829.495, 617.963 827.460 L 615.651 825 511.865 825 L 408.078 825 406.039 827.189" stroke="none" fill="#ffffff" fill-rule="evenodd"/>
</svg>